<?xml version="1.0" standalone="no"?>
<!DOCTYPE svg PUBLIC "-//W3C//DTD SVG 20010904//EN"
 "http://www.w3.org/TR/2001/REC-SVG-20010904/DTD/svg10.dtd">
<svg version="1.0" xmlns="http://www.w3.org/2000/svg"
 width="60.000000pt" height="60.000000pt" viewBox="0 0 60.000000 60.000000"
 preserveAspectRatio="xMidYMid meet">
<metadata>
Created by potrace 1.16, written by Peter Selinger 2001-2019
</metadata>
<g transform="translate(0.000000,60.000000) scale(0.100000,-0.100000)"
fill="#000000" stroke="none">
<path d="M197 579 c-22 -11 -51 -40 -68 -66 -57 -92 -31 -226 56 -285 35 -23
43 -36 67 -110 l27 -83 -30 -9 c-52 -16 -31 -26 54 -26 75 1 80 2 62 16 -11 8
-30 12 -45 9 l-25 -6 3 114 3 113 -39 12 c-22 7 -51 21 -65 32 -35 28 -61 100
-53 144 11 60 82 126 136 126 13 0 20 7 20 20 0 27 -51 26 -103 -1z"/>
</g>
</svg>
